<svg xmlns="http://www.w3.org/2000/svg" xmlns:xlink="http://www.w3.org/1999/xlink" width="500" zoomAndPan="magnify" viewBox="0 0 375 374.999991" height="500" preserveAspectRatio="xMidYMid meet" version="1.0"><defs><g/></defs><path stroke-linecap="butt" transform="matrix(0.778069, 0, 0, 0.778069, 119.473465, -73.310664)" fill="none" stroke-linejoin="miter" d="M 299.955377 187.164781 L 125.771102 187.164781 L 125.771102 288.889 L 295.522325 288.889 L 295.522325 369.256254 L 125.771102 369.256254 L 125.771102 480.634786 L 299.955377 480.634786 L 299.955377 561.00204 L 33.696174 561.00204 L 33.696174 106.797527 L 299.955377 106.797527 Z M 299.955377 187.164781 " stroke="#ff19be" stroke-width="19.440001" stroke-opacity="1" stroke-miterlimit="4"/><g fill="#fcf5fa" fill-opacity="1"><g transform="translate(119.473465, 363.185913)"><g><path d="M 233.4375 -290.921875 L 97.8125 -290.921875 L 97.8125 -211.765625 L 229.90625 -211.765625 L 229.90625 -149.234375 L 97.8125 -149.234375 L 97.8125 -62.515625 L 233.4375 -62.515625 L 233.4375 0 L 26.21875 0 L 26.21875 -353.4375 L 233.4375 -353.4375 Z M 233.4375 -290.921875 "/></g></g></g><g fill="#ff19be" fill-opacity="1"><g transform="translate(-27.341495, 361.417354)"><g><path d="M 263.921875 -194.390625 C 280.078125 -185.960938 292.632812 -174.109375 301.59375 -158.828125 C 310.550781 -143.546875 315.03125 -126.070312 315.03125 -106.40625 C 315.03125 -86.738281 309.847656 -68.828125 299.484375 -52.671875 C 289.117188 -36.523438 275.066406 -23.707031 257.328125 -14.21875 C 239.597656 -4.738281 220.195312 0 199.125 0 L 42.140625 0 L 42.140625 -368.75 L 194.921875 -368.75 C 215.984375 -368.75 234.851562 -364.625 251.53125 -356.375 C 268.21875 -348.125 281.390625 -336.796875 291.046875 -322.390625 C 300.710938 -307.992188 305.546875 -291.84375 305.546875 -273.9375 C 305.546875 -258.132812 301.859375 -243.207031 294.484375 -229.15625 C 287.109375 -215.101562 276.921875 -203.515625 263.921875 -194.390625 Z M 228.109375 -261.296875 C 228.109375 -272.878906 224.421875 -282.359375 217.046875 -289.734375 C 209.671875 -297.109375 199.660156 -300.796875 187.015625 -300.796875 L 120.640625 -300.796875 L 120.640625 -222.3125 L 187.015625 -222.3125 C 199.660156 -222.3125 209.671875 -226 217.046875 -233.375 C 224.421875 -240.75 228.109375 -250.054688 228.109375 -261.296875 Z M 191.234375 -73.21875 C 204.578125 -73.21875 215.195312 -77.082031 223.09375 -84.8125 C 231 -92.539062 234.953125 -102.550781 234.953125 -114.84375 C 234.953125 -126.78125 231 -136.613281 223.09375 -144.34375 C 215.195312 -152.070312 204.578125 -155.9375 191.234375 -155.9375 L 120.640625 -155.9375 L 120.640625 -73.21875 Z M 191.234375 -73.21875 "/></g></g></g></svg>