<svg xmlns="http://www.w3.org/2000/svg" xmlns:xlink="http://www.w3.org/1999/xlink" width="2000" zoomAndPan="magnify" viewBox="0 0 1500 449.999984" height="600" preserveAspectRatio="xMidYMid meet" version="1.0"><defs><g/><clipPath id="45241ecd78"><path d="M 364.105469 157.496094 L 499.105469 157.496094 L 499.105469 292.496094 L 364.105469 292.496094 Z M 364.105469 157.496094 " clip-rule="nonzero"/></clipPath><clipPath id="a805ddcb1f"><path d="M 431.605469 157.496094 C 394.324219 157.496094 364.105469 187.71875 364.105469 224.996094 C 364.105469 262.277344 394.324219 292.496094 431.605469 292.496094 C 468.882812 292.496094 499.105469 262.277344 499.105469 224.996094 C 499.105469 187.71875 468.882812 157.496094 431.605469 157.496094 Z M 431.605469 157.496094 " clip-rule="nonzero"/></clipPath><clipPath id="c936c2a00d"><path d="M 332.453125 132 L 530.429688 132 L 530.429688 312 L 332.453125 312 Z M 332.453125 132 " clip-rule="nonzero"/></clipPath></defs><g clip-path="url(#45241ecd78)"><g clip-path="url(#a805ddcb1f)"><path fill="#ff19be" d="M 364.105469 157.496094 L 499.105469 157.496094 L 499.105469 292.496094 L 364.105469 292.496094 Z M 364.105469 157.496094 " fill-opacity="1" fill-rule="nonzero"/></g></g><g fill="#fcf5fa" fill-opacity="1"><g transform="translate(460.994199, 334.346609)"><g><path d="M 92.734375 -56.359375 L 204.25 -56.359375 L 204.25 0 L 31.984375 0 L 31.984375 -279.796875 L 199.859375 -279.796875 L 199.859375 -223.84375 L 92.734375 -223.84375 L 92.734375 -168.6875 L 189.46875 -168.6875 L 189.46875 -113.921875 L 92.734375 -113.921875 Z M 92.734375 -56.359375 "/></g></g></g><g fill="#fcf5fa" fill-opacity="1"><g transform="translate(661.652652, 334.346609)"><g><path d="M 169.484375 -215.84375 L 230.234375 -215.84375 L 144.296875 0 L 90.34375 0 L 2.796875 -215.84375 L 64.75 -215.84375 L 117.921875 -71.15625 Z M 169.484375 -215.84375 "/></g></g></g><g fill="#fcf5fa" fill-opacity="1"><g transform="translate(872.304011, 334.346609)"><g><path d="M 237.4375 -108.71875 C 237.4375 -103.125 237.035156 -97.394531 236.234375 -91.53125 L 73.15625 -91.53125 C 75.550781 -76.875 81.410156 -65.613281 90.734375 -57.75 C 100.054688 -49.894531 111.78125 -45.96875 125.90625 -45.96875 C 136.03125 -45.96875 145.085938 -48.164062 153.078125 -52.5625 C 161.078125 -56.957031 167.210938 -63.019531 171.484375 -70.75 L 233.03125 -70.75 C 225.039062 -47.300781 211.453125 -28.644531 192.265625 -14.78125 C 173.078125 -0.925781 150.957031 6 125.90625 6 C 104.59375 6 85.472656 1.003906 68.546875 -8.984375 C 51.628906 -18.984375 38.304688 -32.578125 28.578125 -49.765625 C 18.847656 -66.953125 13.984375 -86.335938 13.984375 -107.921875 C 13.984375 -129.503906 18.847656 -148.890625 28.578125 -166.078125 C 38.304688 -183.265625 51.628906 -196.851562 68.546875 -206.84375 C 85.472656 -216.84375 104.59375 -221.84375 125.90625 -221.84375 C 148.03125 -221.84375 167.484375 -216.710938 184.265625 -206.453125 C 201.054688 -196.191406 214.113281 -182.535156 223.4375 -165.484375 C 232.769531 -148.429688 237.4375 -129.507812 237.4375 -108.71875 Z M 125.90625 -172.28125 C 112.851562 -172.28125 101.863281 -168.679688 92.9375 -161.484375 C 84.007812 -154.285156 77.945312 -144.289062 74.75 -131.5 L 179.078125 -131.5 C 170.546875 -158.6875 152.820312 -172.28125 125.90625 -172.28125 Z M 125.90625 -172.28125 "/></g></g></g><g fill="#fcf5fa" fill-opacity="1"><g transform="translate(1100.543013, 334.346609)"><g><path d="M 151.09375 -221.046875 C 175.613281 -221.046875 195 -212.847656 209.25 -196.453125 C 223.507812 -180.066406 230.640625 -158.148438 230.640625 -130.703125 L 230.640625 0 L 172.28125 0 L 172.28125 -121.515625 C 172.28125 -153.753906 159.753906 -169.875 134.703125 -169.875 C 119.785156 -169.875 107.992188 -164.8125 99.328125 -154.6875 C 90.671875 -144.5625 86.34375 -130.835938 86.34375 -113.515625 L 86.34375 0 L 27.984375 0 L 27.984375 -215.84375 L 67.953125 -215.84375 L 79.546875 -189.0625 C 87.535156 -198.925781 97.789062 -206.722656 110.3125 -212.453125 C 122.84375 -218.179688 136.4375 -221.046875 151.09375 -221.046875 Z M 151.09375 -221.046875 "/></g></g></g><g fill="#fcf5fa" fill-opacity="1"><g transform="translate(1333.978366, 334.346609)"><g><path d="M 133.5 -51.96875 L 159.890625 -51.96875 L 159.890625 0 L 118.71875 0 C 95 0 76.273438 -6.859375 62.546875 -20.578125 C 48.828125 -34.304688 41.96875 -53.160156 41.96875 -77.140625 L 41.96875 -169.078125 L 2.796875 -169.078125 L 2.796875 -181.46875 L 88.34375 -272.203125 L 99.125 -272.203125 L 99.125 -215.84375 L 158.6875 -215.84375 L 158.6875 -169.078125 L 100.328125 -169.078125 L 100.328125 -84.734375 C 100.328125 -74.347656 103.191406 -66.289062 108.921875 -60.5625 C 114.648438 -54.832031 122.84375 -51.96875 133.5 -51.96875 Z M 133.5 -51.96875 "/></g></g></g><g fill="#ff19be" fill-opacity="1"><g transform="translate(-25.726386, 334.350155)"><g><path d="M 200.3125 -147.53125 C 212.570312 -141.132812 222.097656 -132.140625 228.890625 -120.546875 C 235.691406 -108.953125 239.09375 -95.691406 239.09375 -80.765625 C 239.09375 -65.835938 235.160156 -52.242188 227.296875 -39.984375 C 219.429688 -27.722656 208.769531 -17.992188 195.3125 -10.796875 C 181.851562 -3.597656 167.128906 0 151.140625 0 L 31.984375 0 L 31.984375 -279.875 L 147.9375 -279.875 C 163.925781 -279.875 178.25 -276.742188 190.90625 -270.484375 C 203.570312 -264.222656 213.570312 -255.625 220.90625 -244.6875 C 228.238281 -233.757812 231.90625 -221.5 231.90625 -207.90625 C 231.90625 -195.914062 229.101562 -184.585938 223.5 -173.921875 C 217.90625 -163.265625 210.175781 -154.46875 200.3125 -147.53125 Z M 173.125 -198.3125 C 173.125 -207.113281 170.320312 -214.3125 164.71875 -219.90625 C 159.125 -225.5 151.53125 -228.296875 141.9375 -228.296875 L 91.5625 -228.296875 L 91.5625 -168.734375 L 141.9375 -168.734375 C 151.53125 -168.734375 159.125 -171.53125 164.71875 -177.125 C 170.320312 -182.71875 173.125 -189.78125 173.125 -198.3125 Z M 145.140625 -55.578125 C 155.265625 -55.578125 163.328125 -58.507812 169.328125 -64.375 C 175.328125 -70.238281 178.328125 -77.832031 178.328125 -87.15625 C 178.328125 -96.21875 175.328125 -103.679688 169.328125 -109.546875 C 163.328125 -115.410156 155.265625 -118.34375 145.140625 -118.34375 L 91.5625 -118.34375 L 91.5625 -55.578125 Z M 145.140625 -55.578125 "/></g></g></g><g fill="#ff19be" fill-opacity="1"><g transform="translate(208.172272, 334.350155)"><g><path d="M 27.984375 -244.6875 L 27.984375 -299.078125 L 86.359375 -299.078125 L 86.359375 -244.6875 Z M 27.984375 0 L 27.984375 -215.90625 L 86.359375 -215.90625 L 86.359375 0 Z M 27.984375 0 "/></g></g></g><g fill="#ff19be" fill-opacity="1"><g transform="translate(299.732557, 334.350155)"><g><path d="M 202.3125 -215.90625 L 240.296875 -215.90625 L 240.296875 -25.1875 C 240.296875 -2.53125 235.832031 16.925781 226.90625 33.1875 C 217.976562 49.445312 205.25 61.972656 188.71875 70.765625 C 172.1875 79.566406 152.59375 83.96875 129.9375 83.96875 C 100.625 83.96875 76.171875 76.898438 56.578125 62.765625 C 36.984375 48.640625 24.785156 29.316406 19.984375 4.796875 L 77.96875 4.796875 C 81.164062 14.390625 87.757812 21.648438 97.75 26.578125 C 107.75 31.515625 118.082031 33.984375 128.75 33.984375 C 143.675781 33.984375 156.398438 29.519531 166.921875 20.59375 C 177.453125 11.664062 182.71875 -0.796875 182.71875 -16.796875 L 182.71875 -24.796875 C 174.1875 -18.660156 164.722656 -13.925781 154.328125 -10.59375 C 143.929688 -7.257812 132.867188 -5.59375 121.140625 -5.59375 C 101.148438 -5.59375 83.023438 -10.390625 66.765625 -19.984375 C 50.503906 -29.585938 37.644531 -42.519531 28.1875 -58.78125 C 18.726562 -75.039062 14 -93.296875 14 -113.546875 C 14 -133.804688 18.726562 -152.128906 28.1875 -168.515625 C 37.644531 -184.910156 50.503906 -197.90625 66.765625 -207.5 C 83.023438 -217.101562 101.148438 -221.90625 121.140625 -221.90625 C 135.273438 -221.90625 148.472656 -219.503906 160.734375 -214.703125 C 172.992188 -209.910156 183.785156 -203.113281 193.109375 -194.3125 Z M 127.9375 -57.578125 C 143.9375 -57.578125 157.132812 -62.835938 167.53125 -73.359375 C 177.925781 -83.890625 183.125 -97.285156 183.125 -113.546875 C 183.125 -129.546875 177.988281 -142.804688 167.71875 -153.328125 C 157.457031 -163.859375 144.195312 -169.125 127.9375 -169.125 C 112.21875 -169.125 99.160156 -163.859375 88.765625 -153.328125 C 78.367188 -142.804688 73.171875 -129.546875 73.171875 -113.546875 C 73.171875 -97.285156 78.300781 -83.890625 88.5625 -73.359375 C 98.820312 -62.835938 111.945312 -57.578125 127.9375 -57.578125 Z M 127.9375 -57.578125 "/></g></g></g><g clip-path="url(#c936c2a00d)"><path fill="#272727" d="M 417.546875 239.363281 C 419.019531 240.210938 418.894531 239.097656 420.996094 239.363281 C 423.097656 239.628906 423.574219 239.679688 423.574219 239.679688 C 423.574219 239.679688 425.390625 239.1875 424.847656 238.675781 C 423.894531 237.773438 423.894531 237.773438 423.894531 237.773438 C 423.894531 237.773438 422.039062 237.085938 420.554688 237.402344 C 419.074219 237.722656 416.070312 238.515625 417.546875 239.363281 Z M 475.484375 178.664062 C 473.101562 178.34375 470.714844 177.710938 470.714844 179.457031 C 470.714844 181.203125 469.285156 183.113281 474.054688 182.792969 C 478.820312 182.476562 483.109375 180.886719 482.632812 178.980469 C 482.15625 177.074219 475.484375 178.664062 475.484375 178.664062 Z M 412.082031 234.277344 C 410.386719 233.164062 410.4375 234.066406 410.4375 234.066406 C 409.761719 234.355469 411.023438 235.125 412.769531 235.960938 C 414.519531 236.796875 413.671875 237.351562 414.675781 238.003906 C 415.683594 238.660156 417.324219 237.5625 417.539062 236.449219 C 417.75 235.335938 413.777344 235.390625 412.082031 234.277344 Z M 421.269531 296.355469 C 420.765625 290.847656 420.503906 285.972656 421.140625 282.582031 C 421.773438 279.195312 420.078125 277.5 416.265625 275.804688 C 412.453125 274.109375 413.511719 270.296875 410.332031 266.695312 C 407.15625 263.09375 408.214844 265.210938 409.273438 261.398438 C 410.332031 257.582031 408.425781 258.644531 412.027344 256.523438 C 415.628906 254.40625 414.148438 254.195312 413.9375 252.261719 C 413.722656 250.328125 412.027344 250.167969 408.640625 251.863281 C 405.25 253.558594 404.1875 249.53125 404.1875 245.71875 C 404.1875 241.90625 401.4375 244.023438 398.46875 242.328125 C 395.503906 240.632812 395.292969 241.480469 391.476562 241.058594 C 387.664062 240.632812 385.121094 239.152344 385.121094 235.550781 C 385.121094 231.949219 380.882812 229.195312 380.882812 229.195312 C 380.882812 229.195312 380.882812 229.195312 379.1875 226.226562 C 377.496094 223.261719 376.859375 220.929688 373.304688 219.023438 C 369.753906 217.117188 371.351562 215.210938 369.867188 211.820312 C 368.382812 208.429688 370.503906 204.828125 372.410156 200.378906 C 374.316406 195.929688 373.042969 190.84375 369.867188 187.242188 C 366.6875 183.640625 367.960938 182.792969 368.171875 179.191406 C 368.382812 175.589844 363.085938 173.683594 360.121094 172.625 C 357.15625 171.566406 354.1875 176.4375 354.1875 176.4375 C 354.1875 176.4375 354.167969 176.453125 352.273438 177.96875 C 344.234375 190.738281 339.5625 205.828125 339.5625 222 C 339.5625 267.214844 375.957031 304.066406 420.988281 304.851562 C 421.125 302.558594 421.59375 299.898438 421.269531 296.355469 Z M 377.75 152.253906 C 379.46875 153.746094 381.558594 155.824219 382.921875 156.734375 C 384.828125 158.003906 388.007812 155.382812 391.027344 155.78125 C 394.046875 156.179688 397.464844 160.867188 399.609375 160.308594 C 401.753906 159.753906 397.222656 155.304688 396.03125 152.921875 C 394.839844 150.535156 397.066406 149.824219 401.039062 147.359375 C 405.011719 144.894531 405.40625 144.179688 406.597656 141.558594 C 406.792969 141.136719 407.054688 140.808594 407.347656 140.515625 C 396.617188 142.5 386.609375 146.554688 377.75 152.253906 Z M 479.289062 282.261719 L 481.636719 289.71875 C 465.800781 303.574219 445.097656 312 422.453125 312 C 372.828125 312 332.453125 271.625 332.453125 222 C 332.453125 172.375 372.828125 132 422.453125 132 C 472.078125 132 512.453125 172.375 512.453125 222 C 512.453125 223.5625 512.414062 225.113281 512.335938 226.65625 L 505.277344 224.875 C 505.308594 223.917969 505.34375 222.964844 505.34375 222 C 505.34375 198.8125 495.761719 177.828125 480.363281 162.769531 C 479.597656 164.128906 478.628906 165.496094 478.027344 168.175781 C 476.914062 173.101562 474.371094 173.417969 469.128906 174.371094 C 463.882812 175.324219 463.566406 178.503906 460.707031 179.777344 C 457.847656 181.046875 458.640625 185.496094 458.640625 185.496094 C 458.640625 185.496094 458.640625 185.496094 456.734375 187.71875 C 454.828125 189.945312 453.238281 184.222656 451.171875 179.777344 C 449.105469 175.324219 450.375 172.304688 452.601562 169.605469 C 454.828125 166.902344 452.125 161.34375 452.125 157.847656 C 452.125 154.351562 450.21875 152.125 446.882812 152.285156 C 443.542969 152.445312 443.703125 148.789062 445.769531 146.246094 C 446.773438 145.011719 448.371094 144.40625 449.910156 143.804688 C 448.277344 143.230469 446.621094 142.710938 444.941406 142.234375 C 444.695312 142.546875 444.457031 142.871094 444.257812 143.226562 C 442.671875 146.089844 436.632812 148.550781 434.089844 149.503906 C 431.546875 150.457031 429.640625 150.0625 428.6875 152.363281 C 427.734375 154.667969 427.257812 158.480469 428.84375 156.972656 C 430.433594 155.464844 432.5 156.496094 434.964844 158.085938 C 437.425781 159.675781 435.203125 161.660156 439.09375 164.679688 C 442.988281 167.699219 439.808594 167.539062 438.300781 168.8125 C 436.789062 170.082031 440.046875 170.003906 441.796875 172.304688 C 443.542969 174.609375 442.511719 174.371094 441.558594 175.722656 C 440.605469 177.074219 439.414062 176.121094 437.902344 174.453125 C 436.394531 172.78125 437.269531 176.675781 437.824219 179.058594 C 438.378906 181.441406 437.1875 181.125 436.234375 181.921875 C 435.28125 182.714844 433.054688 180.488281 432.421875 178.980469 C 431.785156 177.472656 431.308594 177.550781 429.085938 176.753906 C 426.859375 175.960938 428.84375 174.769531 431.070312 174.292969 C 433.296875 173.816406 432.976562 172.625 433.851562 170.398438 C 434.726562 168.175781 432.261719 168.175781 431.386719 165.871094 C 430.515625 163.566406 428.765625 164.757812 428.84375 166.269531 C 428.925781 167.777344 426.144531 170.636719 424.316406 172.070312 C 422.488281 173.5 423.046875 173.023438 424.394531 175.007812 C 425.746094 176.996094 425.429688 178.027344 422.964844 177.472656 C 420.503906 176.914062 419.710938 177.234375 419.152344 176.359375 C 418.597656 175.484375 418.199219 175.085938 416.691406 176.515625 C 415.179688 177.949219 414.066406 178.425781 411.050781 181.046875 C 408.03125 183.667969 412.003906 187.085938 413.433594 188.832031 C 414.863281 190.578125 416.210938 190.976562 418.121094 191.851562 C 420.027344 192.726562 417.246094 196.539062 417.246094 196.539062 C 417.246094 196.539062 417.246094 196.539062 418.992188 197.890625 C 420.742188 199.242188 421.140625 195.902344 421.140625 195.902344 C 421.140625 195.902344 421.296875 195.347656 423.125 192.566406 C 424.953125 189.785156 423.921875 189.546875 423.839844 186.925781 C 423.761719 184.304688 425.191406 183.589844 425.269531 181.683594 C 425.351562 179.777344 425.984375 180.332031 427.65625 179.933594 C 429.324219 179.535156 431.070312 182.476562 432.738281 183.589844 C 434.40625 184.699219 431.945312 186.289062 432.738281 188.039062 C 433.535156 189.785156 435.917969 185.972656 437.109375 184.621094 C 438.300781 183.269531 437.902344 189.148438 438.140625 191.929688 C 438.378906 194.710938 440.445312 193.042969 442.273438 195.03125 C 444.101562 197.015625 441.796875 200.273438 442.113281 201.464844 C 442.429688 202.65625 443.148438 202.894531 444.65625 203.054688 C 446.164062 203.214844 445.847656 204.167969 445.054688 204.644531 C 444.257812 205.121094 441 204.167969 439.414062 203.847656 C 437.824219 203.53125 440.046875 201.464844 440.207031 199.636719 C 440.367188 197.8125 438.21875 200.433594 435.042969 200.511719 C 431.867188 200.589844 431.308594 200.828125 432.660156 201.703125 C 434.011719 202.578125 433.453125 203.371094 432.660156 204.40625 C 431.867188 205.4375 433.535156 206.074219 434.804688 205.675781 C 436.074219 205.277344 436.472656 204.960938 437.269531 206.390625 C 438.0625 207.820312 433.136719 208.296875 433.136719 208.296875 C 433.136719 208.296875 433.136719 208.296875 430.671875 208.296875 C 428.210938 208.296875 428.289062 209.171875 427.257812 210.523438 C 426.222656 211.875 424.476562 212.90625 422.25 213.382812 C 420.027344 213.859375 420.503906 215.925781 419.628906 217.277344 C 418.753906 218.625 421.140625 219.023438 417.960938 221.777344 C 414.78125 224.53125 413.9375 223.472656 413.300781 225.59375 C 412.664062 227.710938 413.300781 231.3125 413.089844 232.371094 C 412.875 233.429688 411.816406 230.886719 409.488281 227.5 C 407.15625 224.109375 405.886719 226.863281 399.953125 226.015625 C 394.019531 225.167969 398.046875 226.4375 394.867188 229.195312 C 391.691406 231.949219 393.808594 232.796875 393.808594 234.703125 C 393.808594 236.609375 396.351562 237.457031 399.105469 237.03125 C 401.859375 236.609375 401.011719 234.277344 404.1875 233.007812 C 407.367188 231.734375 406.308594 235.335938 404.1875 238.003906 C 402.070312 240.671875 404.824219 238.726562 408.003906 239.574219 C 411.179688 240.421875 409.910156 242.753906 409.910156 242.753906 C 409.910156 242.753906 409.910156 242.753906 408.003906 244.660156 C 406.097656 246.566406 409.699219 248.050781 412.664062 246.988281 C 415.628906 245.929688 415.84375 246.355469 420.292969 245.082031 C 424.742188 243.8125 424.316406 244.871094 424.316406 244.871094 C 424.316406 244.871094 424.316406 244.871094 428.765625 245.296875 C 433.214844 245.71875 432.15625 248.898438 435.335938 251.015625 C 438.511719 253.132812 437.242188 251.441406 441.054688 252.921875 C 444.867188 254.40625 442.75 257.582031 446.140625 257.582031 C 449.53125 257.582031 450.589844 259.914062 454.191406 260.335938 C 457.792969 260.761719 458.851562 261.183594 458.851562 261.183594 C 458.851562 261.183594 458.851562 261.183594 461.183594 263.726562 C 463.511719 266.269531 458.214844 270.71875 456.734375 273.898438 C 455.25 277.074219 455.675781 278.769531 454.402344 281.3125 C 453.132812 283.855469 450.375 283.21875 446.988281 286.1875 C 443.597656 289.152344 444.867188 291.058594 441.902344 295.296875 C 438.9375 299.535156 439.359375 298.050781 436.007812 300.804688 C 433.296875 303.03125 433.972656 302.628906 433.101562 304.183594 C 450.859375 301.894531 466.875 293.964844 479.289062 282.261719 Z M 530.757812 270.414062 L 518.417969 283.136719 L 495.101562 260.28125 L 487.179688 277.003906 L 470.980469 225.601562 L 522.96875 238.738281 L 507.417969 247.535156 L 530.757812 270.414062 " fill-opacity="1" fill-rule="nonzero"/></g></svg>